<?xml version="1.0" encoding="UTF-8"?>
<!DOCTYPE svg PUBLIC "-//W3C//DTD SVG 1.1//EN" "http://www.w3.org/Graphics/SVG/1.1/DTD/svg11.dtd">
<svg xmlns="http://www.w3.org/2000/svg" version="1.1" width="96px" height="96px" style="shape-rendering:geometricPrecision; text-rendering:geometricPrecision; image-rendering:optimizeQuality; fill-rule:evenodd; clip-rule:evenodd" xmlns:xlink="http://www.w3.org/1999/xlink">
<g><path style="opacity:0.981" fill="#fac585" d="M 25.5,3.5 C 28.1667,3.5 30.8333,3.5 33.5,3.5C 33.6567,4.87344 33.49,6.20677 33,7.5C 28.7167,9.45265 26.3834,12.786 26,17.5C 25.6667,24.5 25.3333,31.5 25,38.5C 23.3819,42.2805 20.8819,45.2805 17.5,47.5C 20.8819,49.7195 23.3819,52.7195 25,56.5C 25.3333,63.5 25.6667,70.5 26,77.5C 26.3834,82.214 28.7167,85.5474 33,87.5C 33.49,88.7932 33.6567,90.1266 33.5,91.5C 27.0234,91.9507 21.19,90.284 16,86.5C 15.3333,85.1667 14.6667,83.8333 14,82.5C 13.8707,74.1056 13.204,65.7723 12,57.5C 9.26421,53.9431 6.43087,50.6097 3.5,47.5C 6.43087,44.3903 9.26421,41.0569 12,37.5C 13.204,29.2277 13.8707,20.8944 14,12.5C 16.5422,7.78479 20.3755,4.78479 25.5,3.5 Z"/></g>
<g><path style="opacity:0.979" fill="#fac585" d="M 61.5,3.5 C 68.0261,2.92157 73.8594,4.58824 79,8.5C 79.6667,9.83333 80.3333,11.1667 81,12.5C 81.1293,20.8944 81.796,29.2277 83,37.5C 85.7358,41.0569 88.5691,44.3903 91.5,47.5C 88.5691,50.6097 85.7358,53.9431 83,57.5C 81.796,65.7723 81.1293,74.1056 81,82.5C 78.6293,87.1908 74.7959,90.0241 69.5,91C 66.854,91.4974 64.1873,91.6641 61.5,91.5C 61.3433,90.1266 61.51,88.7932 62,87.5C 66.2833,85.5474 68.6166,82.214 69,77.5C 69.3333,70.5 69.6667,63.5 70,56.5C 71.6181,52.7195 74.1181,49.7195 77.5,47.5C 74.1181,45.2805 71.6181,42.2805 70,38.5C 69.6667,31.5 69.3333,24.5 69,17.5C 68.6166,12.786 66.2833,9.45265 62,7.5C 61.51,6.20677 61.3433,4.87344 61.5,3.5 Z"/></g>
</svg>
